<?xml version="1.0" standalone="no"?>
<!DOCTYPE svg PUBLIC "-//W3C//DTD SVG 20010904//EN"
 "http://www.w3.org/TR/2001/REC-SVG-20010904/DTD/svg10.dtd">
<svg version="1.0" xmlns="http://www.w3.org/2000/svg"
 width="254.000000pt" height="235.000000pt" viewBox="0 0 254.000000 235.000000"
 preserveAspectRatio="xMidYMid meet">

<g transform="translate(0.000000,235.000000) scale(0.100000,-0.100000)"
fill="#000000" stroke="none">
<path d="M1110 2234 c-297 -56 -504 -171 -678 -377 -147 -174 -224 -350 -239
-544 l-6 -83 355 0 355 0 12 43 c29 96 110 190 199 230 71 31 191 35 264 7
100 -37 191 -137 218 -237 l11 -43 356 0 356 0 -6 84 c-24 306 -224 605 -522
781 -162 96 -303 135 -505 140 -80 2 -156 1 -170 -1z"/>
<path d="M1165 1425 c-56 -21 -110 -67 -143 -123 -23 -40 -27 -58 -27 -122 0
-83 15 -122 69 -178 53 -57 101 -77 186 -77 57 0 84 5 115 22 153 82 190 272
79 402 -20 23 -55 51 -77 63 -53 27 -148 33 -202 13z"/>
<path d="M193 1046 c17 -218 118 -424 295 -603 142 -144 300 -238 489 -290 89
-24 114 -27 273 -27 160 0 184 3 275 28 419 115 751 494 782 892 l6 84 -355 0
-355 0 -13 -46 c-43 -151 -181 -254 -341 -254 -158 0 -288 96 -336 247 l-17
53 -354 0 -355 0 6 -84z"/>
</g>
</svg>
